HIERARCHY
ROOT hip
{
	OFFSET 0.000000 0.000000 0.000000 
	CHANNELS 6 Xposition Yposition Zposition Zrotation Yrotation Xrotation
	JOINT abdomen
	{
		OFFSET 0.000000 20.688101 -0.731520 
		CHANNELS 3 Zrotation Xrotation Yrotation
		JOINT chest
		{
			OFFSET 0.000000 11.704300 -0.487680 
			CHANNELS 3 Zrotation Xrotation Yrotation
			JOINT neck
			{
				OFFSET 0.000000 22.189400 -2.194560 
				CHANNELS 3 Zrotation Xrotation Yrotation
				JOINT head
				{
					OFFSET -0.243840 7.071330 1.219200 
					CHANNELS 3 Zrotation Xrotation Yrotation
					End Site
					{
						OFFSET 1.000000 0.000000 0.000000 
					}
				}
			}
			JOINT rCollar
			{
				OFFSET -2.682240 19.263399 -4.876800 
				CHANNELS 3 Zrotation Xrotation Yrotation
				JOINT rShldr
				{
					OFFSET -8.778240 -1.950730 1.463040 
					CHANNELS 3 Zrotation Xrotation Yrotation
					JOINT rForeArm
					{
						OFFSET -28.174200 -1.711500 0.487680 
						CHANNELS 3 Zrotation Xrotation Yrotation
						JOINT rHand
						{
							OFFSET -22.587900 0.773209 7.071360 
							CHANNELS 3 Zrotation Xrotation Yrotation
							End Site
							{
								OFFSET -1.782710 -1.182140 1.430490 
							}
						}
					}
				}
			}
			JOINT lCollar
			{
				OFFSET 2.682240 19.263399 -4.876800 
				CHANNELS 3 Zrotation Xrotation Yrotation
				JOINT lShldr
				{
					OFFSET 8.778240 -1.950730 1.463040 
					CHANNELS 3 Zrotation Xrotation Yrotation
					JOINT lForeArm
					{
						OFFSET 28.174200 -1.711500 0.487680 
						CHANNELS 3 Zrotation Xrotation Yrotation
						JOINT lHand
						{
							OFFSET 22.587900 0.773209 7.071360 
							CHANNELS 3 Zrotation Xrotation Yrotation
							End Site
							{
								OFFSET 1.782710 -1.182140 1.430490 
							}
						}
					}
				}
			}
		}
	}
	JOINT rButtock
	{
		OFFSET -8.778240 4.350840 1.219200 
		CHANNELS 3 Zrotation Xrotation Yrotation
		JOINT rThigh
		{
			OFFSET 0.000000 -1.706870 -2.194560 
			CHANNELS 3 Zrotation Xrotation Yrotation
			JOINT rShin
			{
				OFFSET 0.000000 -36.819901 0.731520 
				CHANNELS 3 Zrotation Xrotation Yrotation
				JOINT rFoot
				{
					OFFSET 0.731520 -45.110401 -5.120640 
					CHANNELS 3 Zrotation Xrotation Yrotation
					End Site
					{
						OFFSET -1.122100 -3.699640 12.103000 
					}
				}
			}
		}
	}
	JOINT lButtock
	{
		OFFSET 8.778240 4.350840 1.219200 
		CHANNELS 3 Zrotation Xrotation Yrotation
		JOINT lThigh
		{
			OFFSET 0.000000 -1.706870 -2.194560 
			CHANNELS 3 Zrotation Xrotation Yrotation
			JOINT lShin
			{
				OFFSET 0.000000 -36.819901 0.731520 
				CHANNELS 3 Zrotation Xrotation Yrotation
				JOINT lFoot
				{
					OFFSET -0.731520 -45.110401 -5.120640 
					CHANNELS 3 Zrotation Xrotation Yrotation
					End Site
					{
						OFFSET 1.122100 -3.699640 12.103000 
					}
				}
			}
		}
	}
}
MOTION
Frames: 18
Frame Time: 0.008333
-13.978600 85.096603 18.094400 0.000000 0.000000 0.000000 0.283893 -0.002914 0.008161 0.078459 -0.004733 0.013594 -0.000000 0.000000 -0.000000 -0.000000 0.000000 -0.000000 -0.000000 -0.000000 0.000000 -0.000000 0.000000 0.000000 -0.000000 0.000000 -0.000000 -0.000000 -0.000000 -0.000000 -0.000000 0.000000 -0.000000 -0.000000 0.000000 -0.000000 -0.000000 -0.000000 0.000000 -0.000000 0.000000 -0.000000 -0.000000 0.000000 -0.000000 0.668922 -3.858530 -0.057248 -0.003418 1.437940 -0.027441 -0.455265 2.421050 0.100331 0.000000 0.000000 0.000000 -0.234815 -2.724190 0.029939 0.006626 -0.616661 0.057972 0.449429 3.341270 -0.117940 
-7.724500 83.971703 12.504800 -124.132004 87.453102 -121.110001 2.147970 -1.035020 -1.695720 0.547197 -0.788002 -0.454545 -2.478920 -0.111485 -2.407030 3.536370 2.107540 -4.083760 -0.000000 0.000000 0.000000 18.105000 5.653820 3.669360 -20.297300 -18.066401 15.158000 0.155703 -8.779010 -1.182300 -0.000000 0.000000 0.000000 -23.304899 8.086210 -0.253645 4.406290 -2.040580 -6.840040 -0.118721 -7.656010 1.041610 -0.000000 0.000000 -0.000000 2.876540 -5.392090 6.760590 -0.007012 5.024160 0.002025 -0.633117 2.557300 -8.741050 0.000000 0.000000 0.000000 3.058820 -5.248040 -3.275670 0.004613 4.384660 -0.039069 0.776785 0.381975 3.759690 
-7.758100 84.022697 12.209900 -116.355003 87.568298 -113.170998 4.078870 -2.111480 -3.504600 1.026500 -1.614700 -0.951373 -5.117430 -0.186311 -4.939880 7.644620 4.208800 -8.397870 -0.000000 0.000000 0.000000 36.493401 11.549300 7.532120 -30.213400 -32.657001 35.943699 -0.091848 -18.005699 -2.522450 -0.000000 0.000000 0.000000 -47.868999 16.620800 -0.547086 8.542890 -4.103920 -14.105200 0.069078 -15.734700 2.205560 -0.000000 0.000000 -0.000000 5.630050 -6.870370 13.984600 -0.015146 8.813930 0.032059 -0.746129 2.709340 -18.062799 0.000000 0.000000 0.000000 6.251290 -7.893730 -6.778180 0.021286 9.694850 -0.143700 1.552130 -2.720050 7.824530 
-7.805110 84.083298 11.891100 -108.644997 87.687103 -105.244003 5.692000 -3.088300 -5.110090 1.446250 -2.353920 -1.391870 -7.464780 -0.332095 -7.221200 11.507200 6.193970 -12.316000 -0.000000 0.000000 0.000000 52.076698 16.677200 11.441800 -29.864100 -37.204102 59.224300 -0.725547 -26.289499 -3.910310 -0.000000 0.000000 0.000000 -69.682198 24.256599 -0.826327 11.785700 -5.773500 -20.616301 0.539409 -22.936300 3.363150 -0.000000 0.000000 -0.000000 8.363710 -8.035450 20.516199 -0.025458 12.196600 0.062324 -0.877441 2.615170 -26.427000 0.000000 0.000000 0.000000 8.765100 -10.167700 -10.004300 0.052591 14.387200 -0.240340 2.628540 -5.422450 11.566800 
-7.834020 84.167198 11.585200 -98.787498 87.755898 -95.257401 6.638340 -3.826370 -6.201110 1.744370 -2.875080 -1.690540 -9.082120 -0.655361 -8.873880 14.195500 7.995160 -15.196700 -0.000000 0.000000 0.000000 62.117001 20.105301 15.090700 -28.406200 -34.422600 74.392998 -1.472650 -32.259201 -5.089180 -0.000000 0.000000 0.000000 -84.799599 29.647900 -1.004070 13.798600 -6.793180 -25.149900 1.066840 -27.974899 4.280990 -0.000000 0.000000 -0.000000 10.324700 -8.770580 25.225000 -0.034134 14.561600 0.092041 -1.239200 2.120010 -32.392101 0.000000 0.000000 0.000000 10.203000 -11.624600 -12.437100 0.082720 17.535000 -0.309490 3.634490 -7.239810 14.437100 
-7.855020 84.237701 11.274400 -87.817101 87.821701 -84.204002 6.686470 -4.235860 -6.566460 1.897330 -3.093440 -1.789290 -9.670960 -1.297510 -9.666080 14.944300 9.756220 -16.634300 -0.000000 0.000000 -0.000000 65.107597 21.310699 18.092699 -28.327700 -32.333500 79.612701 -1.904040 -35.044201 -5.704120 -0.000000 0.000000 -0.000000 -90.637497 31.964701 -0.990322 14.509700 -7.134710 -26.870001 1.333720 -30.035999 4.689820 -0.000000 0.000000 -0.000000 10.898700 -9.116520 27.349400 -0.036805 15.496100 0.122815 -2.069120 1.039860 -35.035400 0.000000 0.000000 0.000000 10.403100 -12.002900 -13.704700 0.093251 18.506399 -0.334017 4.174340 -7.903850 16.034300 
-7.911350 84.295799 10.953300 -73.470596 87.918999 -69.729897 6.109140 -4.412950 -6.412120 1.948740 -3.095540 -1.745070 -9.520210 -2.165040 -9.844390 14.235400 11.510600 -17.035900 0.000000 0.000000 -0.000000 63.319099 20.992001 20.521099 -28.329599 -32.945999 79.732597 -1.958770 -35.566502 -5.811780 0.000000 0.000000 -0.000000 -89.868103 32.082500 -0.825268 14.378200 -7.054930 -26.567200 1.319160 -29.976601 4.675540 -0.000000 0.000000 -0.000000 10.412400 -9.249810 27.617500 -0.033833 15.409100 0.153806 -3.196400 -0.453722 -35.327202 0.000000 0.000000 0.000000 9.789130 -11.635100 -14.122900 0.085867 17.924000 -0.325121 4.284870 -7.775770 16.703699 
-7.975770 84.356697 10.622100 -57.223099 87.968597 -53.356800 5.318800 -4.499740 -6.051540 1.938600 -3.007790 -1.644730 -9.073260 -3.011870 -9.748130 12.989400 13.045900 -16.963200 0.000000 0.000000 -0.000000 59.731899 20.081400 22.688700 -28.357800 -34.666901 77.729401 -1.840690 -35.153599 -5.696370 0.000000 0.000000 -0.000000 -86.450897 31.214001 -0.598046 13.899900 -6.799240 -25.442301 1.185010 -29.025299 4.481910 -0.000000 0.000000 -0.000000 9.509080 -9.310040 27.126101 -0.028394 14.922600 0.180402 -4.234000 -1.943790 -34.649601 0.000000 0.000000 0.000000 8.872420 -10.987500 -14.188900 0.072170 16.742701 -0.303654 4.210380 -7.341910 16.993999 
-8.028870 84.407097 10.276300 -46.074699 87.964104 -42.130100 4.724090 -4.638000 -5.798680 1.906900 -2.956640 -1.575130 -8.790770 -3.588830 -9.714640 12.198300 14.124700 -16.982000 0.000000 -0.000000 -0.000000 57.158798 19.444700 24.965000 -28.433399 -35.611500 76.360298 -1.797590 -35.129200 -5.674720 0.000000 -0.000000 -0.000000 -84.356003 30.572201 -0.393145 13.571100 -6.613570 -24.695200 1.104140 -28.410000 4.359930 -0.000000 0.000000 -0.000000 8.852960 -9.418490 26.975800 -0.025136 14.658400 0.198385 -4.922800 -2.926700 -34.350899 0.000000 0.000000 0.000000 8.154550 -10.519800 -14.399600 0.062921 15.917600 -0.290064 4.223090 -7.076470 17.457300 
-8.071900 84.450996 9.942430 -38.218800 87.873199 -34.169102 4.405870 -4.868200 -5.710280 1.844210 -2.959050 -1.552520 -8.745450 -3.774410 -9.774240 12.064800 14.600000 -17.134100 0.000000 -0.000000 -0.000000 56.023499 19.156700 27.477100 -28.434000 -35.510300 76.186600 -1.869910 -35.712799 -5.799060 0.000000 -0.000000 -0.000000 -84.250603 30.324800 -0.197757 13.486700 -6.547670 -24.526899 1.095690 -28.312901 4.342230 -0.000000 0.000000 -0.000000 8.569720 -9.608800 27.348301 -0.025657 14.734800 0.204504 -5.161990 -3.154250 -34.613499 0.000000 0.000000 0.000000 7.736330 -10.314300 -14.807200 0.059073 15.607600 -0.287169 4.366270 -7.048040 18.177299 
-8.112750 84.495300 9.620060 -29.218800 87.687500 -25.037701 4.155230 -5.113770 -5.627930 1.735780 -2.953170 -1.532880 -8.704270 -3.720540 -9.765490 12.063000 14.630900 -17.140900 0.000000 0.000000 -0.000000 54.938499 18.807199 30.017700 -28.433001 -35.234600 75.718300 -1.936880 -36.242802 -5.913280 0.000000 0.000000 -0.000000 -84.142601 29.876499 0.018566 13.391200 -6.473320 -24.337400 1.079750 -28.127300 4.308540 -0.000000 0.000000 -0.000000 8.323650 -9.814370 27.694201 -0.027364 14.836100 0.201724 -5.082980 -2.944620 -34.763000 0.000000 0.000000 0.000000 7.357540 -10.138400 -15.174300 0.055624 15.335400 -0.284978 4.506930 -7.022300 18.881300 
-8.146040 84.522697 9.319650 -23.037300 87.388802 -18.777800 3.946230 -5.341310 -5.542980 1.614450 -2.947220 -1.512620 -8.683890 -3.585710 -9.737720 12.139800 14.425000 -17.097500 -0.000000 0.000000 -0.000000 53.892101 18.483700 32.477001 -28.425200 -34.899502 75.167099 -1.998770 -36.721199 -6.017700 -0.000000 0.000000 -0.000000 -84.032799 29.297001 0.208872 13.282500 -6.389450 -24.121901 1.060420 -27.899099 4.267300 -0.000000 0.000000 -0.000000 8.089300 -10.007500 28.018200 -0.029438 14.932800 0.195327 -4.876930 -2.573680 -34.849400 0.000000 0.000000 0.000000 6.988170 -9.981090 -15.558200 0.052551 15.101200 -0.283947 4.655650 -7.016370 19.584900 
-8.186300 84.531998 9.041890 -21.223801 87.033302 -16.931101 3.752860 -5.517400 -5.446720 1.513030 -2.949430 -1.488120 -8.700870 -3.528430 -9.740240 12.243400 14.189700 -17.100000 -0.000000 0.000000 -0.000000 52.858200 18.273701 34.750702 -28.414499 -34.628601 74.732002 -2.055930 -37.150398 -6.112700 -0.000000 0.000000 -0.000000 -83.925102 28.656000 0.327890 13.158400 -6.294970 -23.875601 1.041560 -27.674299 4.226830 -0.000000 0.000000 -0.000000 7.840640 -10.160900 28.324301 -0.031103 14.995700 0.190604 -4.737840 -2.315210 -34.921101 0.000000 0.000000 0.000000 6.599080 -9.831390 -16.016001 0.049828 14.905100 -0.284532 4.823900 -7.046970 20.304001 
-8.227670 84.539703 8.746290 -19.641001 86.732002 -15.335400 3.569140 -5.622170 -5.330740 1.433160 -2.963100 -1.456840 -8.785920 -3.591710 -9.798360 12.396800 13.948400 -17.192301 -0.000000 0.000000 -0.000000 51.731201 18.244900 36.847801 -28.406799 -34.460400 74.461197 -2.114030 -37.576599 -6.208210 -0.000000 0.000000 -0.000000 -83.821404 27.910400 0.352377 13.013700 -6.185850 -23.588900 1.023680 -27.459101 4.188230 -0.000000 0.000000 -0.000000 7.552650 -10.266700 28.620199 -0.032319 15.017700 0.188691 -4.705020 -2.226180 -34.970600 0.000000 0.000000 0.000000 6.164340 -9.686890 -16.566999 0.047463 14.750900 -0.286805 5.015240 -7.119730 21.039600 
-8.265440 84.563797 8.430320 -16.738199 86.484596 -12.432100 3.408290 -5.677060 -5.201680 1.359730 -2.983490 -1.421220 -8.921690 -3.690720 -9.881770 12.614400 13.601400 -17.317600 -0.000000 0.000000 -0.000000 50.534100 18.331100 38.819901 -28.400801 -34.329399 74.246696 -2.170440 -37.983601 -6.300310 -0.000000 0.000000 -0.000000 -83.722900 27.043699 0.312064 12.850400 -6.063540 -23.267401 1.004990 -27.231100 4.147520 -0.000000 0.000000 -0.000000 7.244100 -10.340500 28.900999 -0.033451 15.014000 0.186859 -4.679890 -2.165420 -34.978901 0.000000 0.000000 0.000000 5.705750 -9.552890 -17.179199 0.045445 14.637100 -0.290531 5.225720 -7.224330 21.784700 
-8.301960 84.591400 8.116200 -13.181400 86.248703 -8.848900 3.273120 -5.710590 -5.073400 1.300440 -3.006690 -1.385170 -9.052200 -3.792260 -9.956200 12.830900 13.171500 -17.419800 -0.000000 0.000000 -0.000000 49.437801 18.428600 40.625801 -28.395399 -34.208401 74.044998 -2.212100 -38.279202 -6.367840 -0.000000 0.000000 -0.000000 -83.634804 26.165600 0.241773 12.677400 -5.935260 -22.928499 0.985705 -26.992901 4.105170 -0.000000 0.000000 -0.000000 6.954340 -10.389500 29.152599 -0.034352 14.989300 0.184609 -4.649830 -2.109220 -34.974201 0.000000 0.000000 0.000000 5.266140 -9.429830 -17.833300 0.043717 14.556700 -0.295707 5.455960 -7.353300 22.542999 
-8.345360 84.614799 7.814250 -10.300700 86.042198 -5.922300 3.166620 -5.751360 -4.959770 1.262970 -3.028790 -1.352560 -9.121070 -3.863240 -9.987330 12.982900 12.681000 -17.443501 -0.000000 0.000000 -0.000000 48.628502 18.446199 42.219601 -28.388599 -34.069401 73.813499 -2.225100 -38.371399 -6.388940 -0.000000 0.000000 -0.000000 -83.559303 25.385799 0.175061 12.504000 -5.808390 -22.589701 0.966031 -26.747299 4.061660 -0.000000 0.000000 -0.000000 6.722890 -10.421000 29.360800 -0.034879 14.948100 0.181444 -4.602080 -2.033970 -34.984901 0.000000 0.000000 0.000000 4.888130 -9.318230 -18.510099 0.042225 14.502500 -0.302331 5.706250 -7.499230 23.318300 
-8.377390 84.631699 7.532500 -8.681900 85.877403 -4.311600 3.103370 -5.804890 -4.872380 1.252490 -3.049430 -1.326640 -9.106940 -3.878050 -9.955890 13.066000 12.079000 -17.354000 -0.000000 0.000000 -0.000000 48.218201 18.454901 43.525799 -28.378401 -33.882099 73.501999 -2.206820 -38.239300 -6.358910 -0.000000 0.000000 -0.000000 -83.499298 24.667101 0.111086 12.318800 -5.675320 -22.227699 0.942751 -26.454000 4.009920 -0.000000 0.000000 -0.000000 6.577010 -10.435700 29.522100 -0.034904 14.886100 0.176857 -4.525820 -1.924220 -35.024200 0.000000 0.000000 0.000000 4.596000 -9.220320 -19.224701 0.041024 14.476000 -0.310704 5.985850 -7.661620 24.140100 
